<svg xmlns="http://www.w3.org/2000/svg" viewBox="0 0 100 100" width="100" height="100">
  <defs>
    <radialGradient id="phantomGlow" cx="50%" cy="50%" r="50%">
      <stop offset="0%" stop-color="#ff4081" stop-opacity="0.8"/>
      <stop offset="100%" stop-color="#4a148c" stop-opacity="0"/>
    </radialGradient>
    <linearGradient id="phantomEyes" x1="0%" y1="0%" x2="0%" y2="100%">
      <stop offset="0%" stop-color="#f8bbd0"/>
      <stop offset="100%" stop-color="#ff4081"/>
    </linearGradient>
  </defs>
  <circle cx="50" cy="50" r="46" fill="url(#phantomGlow)"/>
  <ellipse cx="50" cy="56" rx="28" ry="24" fill="#1f0927"/>
  <polygon points="26,42 28,15 44,34" fill="#381045"/>
  <polygon points="29,40 31,19 41,34" fill="#ff4081" opacity="0.6"/>
  <polygon points="74,42 72,15 56,34" fill="#381045"/>
  <polygon points="71,40 69,19 59,34" fill="#ff4081" opacity="0.6"/>
  <!-- Star symbol on forehead -->
  <polygon points="50,32 52,37 57,38 53,41 54,46 50,43 46,46 47,41 43,38 48,37" fill="#f48fb1"/>
  <ellipse cx="38" cy="56" rx="7.5" ry="9" fill="url(#phantomEyes)"/>
  <ellipse cx="62" cy="56" rx="7.5" ry="9" fill="url(#phantomEyes)"/>
  <ellipse cx="38" cy="56" rx="3.5" ry="7.5" fill="#0d0211"/>
  <ellipse cx="62" cy="56" rx="3.5" ry="7.5" fill="#0d0211"/>
  <circle cx="36" cy="52" r="2.2" fill="#ffffff"/>
  <circle cx="60" cy="52" r="2.2" fill="#ffffff"/>
  <polygon points="50,63 47,66 53,66" fill="#f48fb1"/>
  <path d="M 47,68 Q 50,71 53,68" stroke="#f48fb1" stroke-width="1.6" fill="none" stroke-linecap="round"/>
  <path d="M 25,62 Q 15,60 8,61" stroke="#ff4081" stroke-width="1.4" fill="none" opacity="0.8"/>
  <path d="M 26,66 Q 16,68 9,72" stroke="#ff4081" stroke-width="1.4" fill="none" opacity="0.8"/>
  <path d="M 75,62 Q 85,60 92,61" stroke="#ff4081" stroke-width="1.4" fill="none" opacity="0.8"/>
  <path d="M 74,66 Q 84,68 91,72" stroke="#ff4081" stroke-width="1.4" fill="none" opacity="0.8"/>
  <ellipse cx="34" cy="76" rx="6" ry="5" fill="#381045"/>
  <ellipse cx="66" cy="76" rx="6" ry="5" fill="#381045"/>
  <circle cx="34" cy="76" r="2.5" fill="#ff4081" opacity="0.8"/>
  <circle cx="66" cy="76" r="2.5" fill="#ff4081" opacity="0.8"/>
</svg>
